<?xml version="1.0" encoding="UTF-8" standalone="no"?>
<svg
   xmlns:dc="http://purl.org/dc/elements/1.1/"
   xmlns:cc="http://creativecommons.org/ns#"
   xmlns:rdf="http://www.w3.org/1999/02/22-rdf-syntax-ns#"
   xmlns:svg="http://www.w3.org/2000/svg"
   xmlns="http://www.w3.org/2000/svg"
   xmlns:sodipodi="http://sodipodi.sourceforge.net/DTD/sodipodi-0.dtd"
   xmlns:inkscape="http://www.inkscape.org/namespaces/inkscape"
   inkscape:version="1.0 (4035a4fb49, 2020-05-01)"
   sodipodi:docname="Meteorit_Logo.svg"
   id="svg42"
   version="1.1"
   width="190"
   height="49.514">
  <metadata
     id="metadata46">
    <rdf:RDF>
      <cc:Work
         rdf:about="">
        <dc:format>image/svg+xml</dc:format>
        <dc:type
           rdf:resource="http://purl.org/dc/dcmitype/StillImage" />
      </cc:Work>
    </rdf:RDF>
  </metadata>
  <sodipodi:namedview
     inkscape:current-layer="svg42"
     inkscape:window-maximized="0"
     inkscape:window-y="23"
     inkscape:window-x="26"
     inkscape:cy="24.757"
     inkscape:cx="95"
     inkscape:zoom="2.5143153"
     showgrid="false"
     id="namedview44"
     inkscape:window-height="480"
     inkscape:window-width="876"
     inkscape:pageshadow="2"
     inkscape:pageopacity="0"
     guidetolerance="10"
     gridtolerance="10"
     objecttolerance="10"
     borderopacity="1"
     bordercolor="#666666"
     pagecolor="#ffffff" />
  <defs
     id="defs24">
    <clipPath
       clipPathUnits="userSpaceOnUse"
       id="b">
      <path
         id="path2"
         d="M0 841.89h1190.55V0H0z" />
    </clipPath>
    <clipPath
       clipPathUnits="userSpaceOnUse"
       id="c">
      <path
         id="path5"
         d="M695.482 488.764c-27.099-10.617-37.829-34.27-36.836-55.814 1.568-33.938 28.484-56.398 60.943-53.724 16.735 1.378 41.168 9.97 50.06 40.832l32.83 69.165-61.142-81.353c-5.085-5.385-13.988-10.201-22.869-10.761-21.756-1.372-40.826 13.469-41.929 36.969-.596 12.765 4.85 23.868 13.821 31.674l86.108 64.231z" />
    </clipPath>
    <clipPath
       clipPathUnits="userSpaceOnUse"
       id="f">
      <path
         id="path8"
         d="M0 841.89h1190.55V0H0z" />
    </clipPath>
    <linearGradient
       x1="0"
       y1="0"
       x2="1"
       y2="0"
       gradientUnits="userSpaceOnUse"
       gradientTransform="matrix(75.66824 85.81343 85.81343 -75.66823 679.156 394.509)"
       spreadMethod="pad"
       id="a">
      <stop
         id="stop11"
         stop-color="#fff"
         offset="0" />
      <stop
         id="stop13"
         stop-color="#fff"
         stop-opacity=".35"
         offset="1" />
    </linearGradient>
    <linearGradient
       x1="0"
       y1="0"
       x2="1"
       y2="0"
       gradientUnits="userSpaceOnUse"
       gradientTransform="matrix(75.66824 85.81343 85.81343 -75.66823 679.156 394.509)"
       spreadMethod="pad"
       id="e">
      <stop
         id="stop16"
         stop-color="#fab383"
         offset="0" />
      <stop
         id="stop18"
         stop-color="#fbb03f"
         offset="1" />
    </linearGradient>
    <mask
       maskUnits="userSpaceOnUse"
       x="0"
       y="0"
       width="1"
       height="1"
       id="d">
      <path
         id="path21"
         fill="url(#a)"
         d="M-32768 32767h65535v-65534h-65535z" />
    </mask>
  </defs>
  <path
     id="path26"
     fill="#5c52a3"
     d="M28.632 34.38l.08-25.057h-5.588l-8.627 16.365L5.87 9.323H.283l.08 25.057H5.39l-.065-14.683L12.74 34.38h3.513l7.414-14.683-.064 14.683zM52.553 29.47H39.559v-5.164h9.1v-4.91h-9.1v-5.165h12.994V9.323H34.47V34.38h18.082zM69.71 34.38V14.23h7.614V9.323H57.012v4.908h7.615V34.38zM99.406 29.47H86.41v-5.164h9.1v-4.91h-9.1v-5.165h12.996V9.323H81.323V34.38h18.083z" />
  <g
     id="g30"
     transform="matrix(0.23117,0,0,-0.23117,-49.825,122.517)"
     clip-path="url(#b)">
    <path
       id="path28"
       fill="#5c52a3"
       d="m 741.337,407.87 c -7.154,-7.207 -16.224,-10.857 -26.98,-10.857 -10.737,0 -19.818,3.65 -26.972,10.857 -7.194,7.231 -10.846,16.515 -10.846,27.592 0,11.07 3.652,20.347 10.846,27.593 7.154,7.195 16.235,10.86 26.972,10.86 10.756,0 19.826,-3.665 26.98,-10.86 7.193,-7.246 10.845,-16.529 10.845,-27.593 0,-11.077 -3.652,-20.36 -10.845,-27.592 m 14.018,67.71 c -10.751,10.771 -24.288,16.233 -40.24,16.233 -15.935,0 -29.473,-5.462 -40.23,-16.234 -10.748,-10.77 -16.191,-24.265 -16.191,-40.117 0,-15.86 5.443,-29.36 16.192,-40.126 10.756,-10.762 24.294,-16.222 40.23,-16.222 15.95,0 29.488,5.46 40.239,16.23 10.755,10.77 16.197,24.267 16.197,40.118 0,15.846 -5.442,29.346 -16.197,40.117 M 226.489,321.594 h -4.945 v 8.23 h 4.994 c 5.197,0 5.197,-3.077 5.197,-4.087 0,-1.926 -0.598,-4.143 -5.246,-4.143 m 0.049,13.717 h -4.994 v 5.6 h 14.034 v 5.55 H 215.53 v -30.424 h 10.958 c 9.406,0 11.379,5.356 11.379,9.852 0,3.52 -1.472,9.422 -11.33,9.422 m 30.723,-6.9 h 11.657 v 5.56 H 257.26 v 6.941 h 14.243 v 5.55 h -20.256 v -30.425 h 21.108 v 5.557 H 257.26 Z m 49.59,-3.129 c -2.067,-2.497 -4.668,-3.765 -7.73,-3.765 -5.707,0 -9.54,3.88 -9.54,9.656 0,5.986 3.732,9.852 9.51,9.852 3.014,0 5.615,-1.274 7.73,-3.783 l 0.77,-0.913 4.57,3.67 -0.814,0.955 c -3.171,3.741 -7.524,5.795 -12.255,5.795 -9.38,0 -15.684,-6.26 -15.684,-15.576 0,-9.03 6.462,-15.335 15.713,-15.335 4.898,0 9.143,1.978 12.272,5.721 l 0.798,0.953 -4.566,3.71 z m 17.688,-9.245 h 5.995 v 24.875 h 11.714 v -24.875 h 6.054 v 30.425 h -23.763 z m 44.714,12.374 h 11.655 v 5.56 h -11.655 v 6.941 h 14.25 v 5.55 H 363.25 v -30.425 h 21.096 v 5.557 h -15.093 z m 34.486,12.501 h 5.001 c 2.312,0 5.07,-0.738 5.07,-4.25 0,-2.912 -1.898,-4.386 -5.639,-4.386 h -4.432 z m 5.355,5.55 h -11.358 v -30.425 h 6.003 v 10.675 h 4.748 c 7.182,0 11.47,3.685 11.47,9.858 0,6.286 -3.96,9.892 -10.863,9.892 m 29.961,-18.051 h 11.67 v 5.56 h -11.67 v 6.941 h 14.234 v 5.55 h -20.247 v -30.425 h 21.114 v 5.557 h -15.1 z m 39.446,-6.817 h -4.96 v 8.23 h 5.003 c 5.196,0 5.196,-3.077 5.196,-4.087 0,-1.781 -0.543,-4.143 -5.239,-4.143 m 0.043,13.717 h -5.003 v 5.6 h 14.035 v 5.55 h -20.04 V 316.037 H 478.5 c 9.398,0 11.372,5.356 11.372,9.852 0,3.52 -1.473,9.422 -11.329,9.422 m 38.825,-13.831 c -5.594,0 -9.656,4.11 -9.656,9.774 0,5.681 4.062,9.803 9.656,9.803 5.534,0 9.55,-4.122 9.55,-9.803 0,-5.665 -4.016,-9.774 -9.55,-9.774 m 0,25.27 c -9.178,0 -15.838,-6.515 -15.838,-15.495 0,-8.958 6.66,-15.46 15.838,-15.46 9.1,0 15.704,6.501 15.704,15.46 0,8.98 -6.604,15.495 -15.704,15.495 m 35.439,-20.089 v 19.801 h -6.01 v -30.425 h 5.04 l 14.228,19.635 v -19.635 h 5.992 v 30.425 h -4.94 z m 6.755,21.142 c 4.19,0 7.07,2.298 7.702,6.143 l 0.209,1.278 -5.475,0.593 -0.108,-1.25 c -0.032,-0.37 -0.293,-2.231 -2.329,-2.231 -2.012,0 -2.313,1.88 -2.353,2.256 l -0.13,1.225 -5.44,-0.596 0.209,-1.275 c 0.632,-3.845 3.516,-6.143 7.715,-6.143 m 46.238,-14.46 h -12.75 v 13.119 h -5.995 v -30.425 h 5.996 v 11.745 h 12.75 v -11.745 h 5.996 v 30.425 H 605.8 Z m 35.555,-11.863 c -5.595,0 -9.661,4.11 -9.661,9.774 0,5.681 4.066,9.803 9.66,9.803 5.524,0 9.531,-4.122 9.531,-9.803 0,-5.665 -4.007,-9.774 -9.53,-9.774 m 0,25.27 c -9.18,0 -15.84,-6.515 -15.84,-15.495 0,-8.958 6.66,-15.46 15.84,-15.46 9.106,0 15.712,6.501 15.712,15.46 0,8.98 -6.606,15.495 -15.712,15.495 m 35.419,-18.339 h 11.661 v 5.56 h -11.66 v 6.941 h 14.248 v 5.55 h -20.27 v -30.425 h 21.117 v 5.557 h -15.096 z m 73.736,18.051 h -7.858 l -11.478,-13.34 v 13.34 h -6.014 v -30.425 h 6.014 v 8.527 l 2.913,3.297 8.922,-11.824 h 7.536 L 738.12,332.41 Z M 776.862,328.3 h -7.173 l 3.561,9.449 z m -6.21,18.162 -11.978,-30.425 h 6.37 l 2.575,6.81 h 11.278 l 2.622,-6.81 h 6.368 l -12.018,30.425 z m 41.628,-13.827 c -1.81,-0.817 -4.27,-1.188 -6.06,-1.188 -3.119,0 -4.509,0.756 -4.509,5.24 v 9.775 h -6.006 v -10.273 c 0,-6.885 3.222,-10.38 9.586,-10.38 2.201,0 4.868,0.476 6.99,1.203 v -10.975 h 6.002 v 30.425 h -6.003 z m 27.007,-4.224 h 11.658 v 5.56 h -11.658 v 6.941 h 14.235 v 5.55 h -20.256 v -30.425 h 21.11 v 5.557 h -15.089 z m 49.575,-3.129 c -2.067,-2.497 -4.668,-3.765 -7.73,-3.765 -5.698,0 -9.528,3.88 -9.528,9.656 0,5.986 3.723,9.852 9.487,9.852 3.041,0 5.645,-1.274 7.75,-3.777 l 0.768,-0.919 4.58,3.67 -0.822,0.96 c -3.18,3.736 -7.542,5.79 -12.276,5.79 -9.375,0 -15.672,-6.26 -15.672,-15.576 0,-9.03 6.46,-15.335 15.712,-15.335 4.895,0 9.142,1.978 12.28,5.721 l 0.8,0.953 -4.577,3.71 z m 15.313,15.63 h 8.678 v -24.875 h 6.015 v 24.875 h 8.783 v 5.55 h -23.476 z m 46.799,-6.504 h -4.741 v 6.51 l 4.34,0.027 c 4.879,-0.002 4.879,-2.402 4.879,-3.193 0,-2.217 -1.507,-3.344 -4.478,-3.344 m -4.741,-5.438 h 4.947 c 2.564,0 5.62,-0.663 5.62,-3.829 0,-2.932 -2.762,-3.547 -5.08,-3.547 h -5.487 z m 12.392,3.274 c 1.845,1.462 2.916,3.66 2.916,6.181 0,3.002 -1.377,8.037 -10.602,8.037 h -10.714 v -30.425 h 11.812 c 6.849,0 10.935,3.3 10.935,8.825 0,3.344 -1.58,5.96 -4.347,7.382 m 31.952,-10.764 c -5.588,0 -9.642,4.11 -9.642,9.774 0,5.681 4.054,9.803 9.642,9.803 5.532,0 9.55,-4.122 9.55,-9.803 0,-5.665 -4.018,-9.774 -9.55,-9.774 m 0,25.27 c -9.173,0 -15.829,-6.515 -15.829,-15.495 0,-8.958 6.656,-15.46 15.83,-15.46 9.104,0 15.717,6.501 15.717,15.46 0,8.98 -6.613,15.495 -15.718,15.495 m -170.183,97.598 v 25.797 h 22.289 c 6.744,0 11.827,-1.199 15.095,-3.572 2.957,-2.16 4.334,-5.096 4.334,-9.26 0,-5.56 -2.02,-12.965 -19.43,-12.965 z m 27.744,-19.289 c 34.554,2.462 36.396,27.117 36.396,32.254 0,10.256 -3.852,18.358 -11.452,24.09 -7.285,5.476 -17.464,8.25 -30.258,8.25 H 798.386 V 381.264 h 22.008 v 40.3 l 40.828,-40.3 h 31.994 z m 63.718,-43.795 h 21.999 v 108.389 h -21.999 z m 37.717,108.389 v -21.23 h 32.933 v -87.16 h 21.993 v 87.16 h 32.93 v 21.23 z" />
  </g>
  <g
     id="g36"
     transform="matrix(.23117 0 0 -.23117 -49.825 122.517)"
     clip-path="url(#c)">
    <g
       id="g34"
       mask="url(#d)">
      <path
         id="path32"
         fill="url(#e)"
         d="M695.482 488.764c-27.099-10.617-37.829-34.27-36.836-55.814 1.568-33.938 28.484-56.398 60.943-53.724 16.735 1.378 41.168 9.97 50.06 40.832l32.83 69.165-61.142-81.353c-5.085-5.385-13.988-10.201-22.869-10.761-21.756-1.372-40.826 13.469-41.929 36.969-.596 12.765 4.85 23.868 13.821 31.674l86.108 64.231z" />
    </g>
  </g>
  <g
     id="g40"
     transform="matrix(.23117 0 0 -.23117 -49.825 122.517)"
     clip-path="url(#f)">
    <path
       id="path38"
       fill="#f2aa1d"
       d="M733.269 423.202c.947 1.14 1.76 2.36 2.473 3.66l60.586 88.803-91.37-58.404a22.74 22.74 0 01-2.758-1.815c-5.723-4.422-9.235-11.514-8.742-19.289.774-12.433 11.488-21.877 23.919-21.087 6.309.403 11.833 3.364 15.65 7.812 0-.007.019 0 .019 0z" />
  </g>
</svg>
